<?xml version="1.0" standalone="no"?>
<!DOCTYPE svg PUBLIC "-//W3C//DTD SVG 20010904//EN"
 "http://www.w3.org/TR/2001/REC-SVG-20010904/DTD/svg10.dtd">
<svg version="1.0" xmlns="http://www.w3.org/2000/svg"
 width="200.000000pt" height="200.000000pt" viewBox="0 0 200.000000 200.000000"
 preserveAspectRatio="xMidYMid meet">

<g transform="translate(0.000000,200.000000) scale(0.100000,-0.100000)"
fill="#000000" stroke="none">
<path d="M0 1000 l0 -1000 1000 0 1000 0 0 1000 0 1000 -1000 0 -1000 0 0
-1000z m1163 754 c88 -20 215 -78 280 -128 28 -21 55 -35 64 -32 25 10 81 -21
98 -54 31 -59 -7 -125 -77 -136 -50 -9 -100 36 -103 91 -3 48 -30 72 -140 125
-338 164 -741 23 -905 -315 -162 -335 -24 -740 308 -905 158 -78 352 -91 521
-35 200 68 358 226 425 425 35 105 46 261 24 355 -7 33 -12 68 -10 77 4 22 47
34 66 19 22 -18 41 -137 39 -246 -5 -344 -235 -637 -572 -727 -106 -28 -277
-28 -384 1 -272 72 -491 298 -551 568 -23 102 -21 260 4 358 70 275 277 483
551 555 95 24 262 26 362 4z m-33 -459 c21 -55 80 -205 129 -334 50 -128 91
-240 91 -247 0 -11 -19 -14 -84 -14 l-83 0 -93 265 c-51 146 -95 263 -98 260
-4 -3 -27 -63 -52 -133 l-46 -127 81 -3 82 -3 18 -57 c9 -31 20 -62 22 -69 4
-9 -27 -13 -122 -15 l-127 -3 -22 -55 -22 -55 -87 -3 c-48 -1 -87 -1 -87 1 0
7 259 678 266 688 3 5 48 8 100 7 l95 -3 39 -100z"/>
</g>
</svg>
